<?xml version="1.0" encoding="UTF-8"?>
<svg xmlns="http://www.w3.org/2000/svg" width="41" height="41" viewBox="0 0 41 41" fill="none">
  <g clip-path="url(#clip0_3417_2363)">
    <path d="M28.6142 32.9031L31.7101 36.5326L30.9664 36.9574L25.1227 40.3142C24.7272 40.5398 24.3053 40.7128 23.8675 40.8335C23.8622 40.8335 23.857 40.8335 23.857 40.8335C23.7462 40.8649 23.6354 40.8912 23.5247 40.9121C22.876 41.0328 22.2009 41.0328 21.5469 40.9121C21.4362 40.8912 21.3254 40.8649 21.2146 40.8335C21.2094 40.8335 21.2094 40.8335 21.2041 40.8335C20.7769 40.7181 20.3602 40.545 19.9647 40.3142L10.2762 34.7545L6.58431 32.6356C4.98098 31.7125 4 30.0183 4 28.1826V12.8253C4 10.9895 4.98098 9.29017 6.57903 8.3723L19.9647 0.688403C21.5627 -0.229468 23.5352 -0.229468 25.128 0.688403L34.7743 6.22186L31.1932 9.7832L25.0858 6.27955C23.4878 5.36168 21.5153 5.36168 19.9172 6.27955L11.4101 11.1731C9.81205 12.091 8.82052 13.7851 8.82052 15.6209V25.3923C8.82052 27.228 9.80678 28.9221 11.4101 29.84L13.3562 30.9572L19.9172 34.7178C20.6398 35.1322 21.4309 35.3577 22.2378 35.3892C22.4382 35.4102 22.6334 35.4102 22.8338 35.3892C23.6407 35.3577 24.4318 35.1322 25.1544 34.7178L28.2608 32.9345C28.3821 32.9345 28.4982 32.924 28.6142 32.9031Z" fill="#06589C"></path>
    <path fill-rule="evenodd" clip-rule="evenodd" d="M33.8778 30.7843L33.1341 30.1444L31.5044 28.7388L31.6996 28.5814C32.0107 28.2457 31.9844 27.7737 31.7048 27.4642L30.7766 26.5254C31.8156 25.0778 32.5276 23.2473 32.6542 21.2699C32.7122 20.4045 32.6594 19.5548 32.5118 18.7418C32.1742 16.8641 31.3198 15.1543 30.1068 13.7224C28.3083 11.7241 25.8031 10.3866 22.9287 10.1978C22.0585 10.1401 21.2041 10.1925 20.3814 10.3394C18.488 10.6751 16.7422 11.5247 15.3499 12.7363C13.3457 14.5249 12.0008 17.0162 11.811 19.8747C11.6158 22.7333 12.6126 25.4292 14.3583 27.4223C16.1093 29.4154 18.662 30.7476 21.5311 30.9469C23.2927 31.0623 24.9593 30.7633 26.4729 30.1077C26.5257 30.1654 26.5257 30.2231 26.6364 30.2913L27.744 31.4189C28.013 31.7284 28.4876 31.7022 28.8041 31.4399L28.9254 31.2721L29.669 32.1375L30.7608 33.4173L32.8599 35.8719L37.0211 33.4802L33.8778 30.7843ZM27.5805 26.6722V26.7299C26.0194 28.0884 23.915 28.8227 21.6841 28.6758C19.4004 28.5185 17.4648 27.5114 16.046 25.9012C14.6801 24.3487 13.9311 22.3084 14.0894 20.0373C14.1632 18.9254 14.4585 17.8764 14.9227 16.9376C15.3921 15.9935 16.0355 15.1595 16.8161 14.4724C18.4405 13.114 20.4974 12.3167 22.7758 12.4741C25.0067 12.6209 26.9845 13.6857 28.3558 15.2434C29.7218 16.7959 30.5234 18.9044 30.3705 21.1126C30.2228 23.3941 29.1469 25.3085 27.5805 26.6722Z" fill="#0ABF53"></path>
    <path fill-rule="evenodd" clip-rule="evenodd" d="M25.898 16.1455H27.2904C26.647 15.4112 25.8506 14.8185 24.9593 14.4199C25.3495 14.9444 25.6607 15.5371 25.898 16.1455ZM19.5058 14.4199C18.6092 14.8185 17.8129 15.406 17.1747 16.1455H18.5618C18.8044 15.5371 19.1103 14.9444 19.5058 14.4199ZM27.2904 24.8574H25.898C25.6554 25.4606 25.3495 26.0585 24.954 26.5778C25.8506 26.1791 26.647 25.5917 27.2904 24.8574ZM24.8116 24.8574H22.7336V27.0813C23.7093 26.7876 24.4055 25.7386 24.8116 24.8574ZM21.7262 24.8574H19.6482C20.0491 25.7386 20.7505 26.7876 21.7262 27.0813V24.8574ZM18.5618 24.8574H17.1747C17.8181 25.5917 18.6092 26.1791 19.5058 26.5778C19.1103 26.0533 18.8044 25.4658 18.5618 24.8574ZM16.4521 23.8556H18.2242C17.9816 22.985 17.8287 22.0199 17.7918 21.0024H15.5555C15.6347 22.0356 15.9511 23.0059 16.4521 23.8556ZM19.2738 23.8556H21.7262V21.0024H18.7991C18.8413 22.0356 19.0101 23.0059 19.2738 23.8556ZM22.7336 23.8556H25.186C25.4497 23.0059 25.6132 22.0356 25.6554 21.0024H22.7283L22.7336 23.8556ZM26.2356 23.8556H28.0077C28.5034 23.0059 28.8252 22.0356 28.899 21.0024H26.6628C26.6311 22.0199 26.4782 22.985 26.2356 23.8556ZM16.4521 17.1473C15.9511 17.997 15.6347 18.9673 15.5608 20.0006H17.797C17.834 18.983 17.9869 18.018 18.2295 17.1473H16.4521ZM28.0077 17.1473H26.2356C26.4782 18.018 26.6311 18.983 26.6681 20.0006H28.9043C28.8252 18.9673 28.5087 17.997 28.0077 17.1473ZM25.1913 17.1473H22.7336V20.0006H25.6607C25.6185 18.9673 25.455 17.997 25.1913 17.1473ZM21.7262 17.1473H19.2738C19.0101 17.997 18.8466 18.9673 18.8044 20.0006H21.7315V17.1473H21.7262ZM19.6535 16.1455H21.7315V13.9216C20.7558 14.2153 20.0543 15.2591 19.6535 16.1455ZM22.7336 16.1455H24.8116C24.4107 15.2643 23.7093 14.2153 22.7336 13.9216V16.1455Z" fill="#0ABF53"></path>
  </g>
  <defs>
    <clipPath id="clip0_3417_2363">
      <rect width="41" height="41" fill="white"></rect>
    </clipPath>
  </defs>
</svg>
